<?xml version="1.0" encoding="UTF-8"?>
<svg version="1.1" xmlns="http://www.w3.org/2000/svg" width="64" height="64">
<path d="M0 0 C21.12 0 42.24 0 64 0 C64 21.12 64 42.24 64 64 C42.88 64 21.76 64 0 64 C0 42.88 0 21.76 0 0 Z " fill="#A7C7D4" transform="translate(0,0)"/>
<path d="M0 0 C21.12 0 42.24 0 64 0 C64 18.81 64 37.62 64 57 C59 52 59 52 58.41992188 49.47973633 C58.4440918 48.16912231 58.4440918 48.16912231 58.46875 46.83203125 C58.45908203 45.36733398 58.45908203 45.36733398 58.44921875 43.87304688 C58.48274894 41.85220814 58.51659679 39.83137465 58.55078125 37.81054688 C58.50174139 30.33196884 56.76841425 25.41021156 53 19 C52.65259766 18.2687793 52.30519531 17.53755859 51.94726562 16.78417969 C50.67931778 14.39599338 49.47686062 14.03632536 47 13 C46.05125 12.51402344 45.1025 12.02804687 44.125 11.52734375 C43.09375 11.00269531 42.0625 10.47804688 41 9.9375 C39.96875 9.41027344 38.9375 8.88304687 37.875 8.33984375 C30.36137381 4.83824894 21.13300804 4.92025091 13 6 C7.62144285 8.01138942 4.023149 10.976851 0 15 C0 10.05 0 5.1 0 0 Z " fill="#F3D2C1" transform="translate(0,0)"/>
<path d="M0 0 C10.56 0 21.12 0 32 0 C31.34 3.3 30.68 6.6 30 10 C26.37 10 22.74 10 19 10 C18.731875 11.52625 18.46375 13.0525 18.1875 14.625 C14.57882166 34.42117834 14.57882166 34.42117834 13 36 C11.14712498 36.07226502 9.29166122 36.0838122 7.4375 36.0625 C6.42558594 36.05347656 5.41367187 36.04445312 4.37109375 36.03515625 C3.19740234 36.01775391 3.19740234 36.01775391 2 36 C2.60497958 29.93629658 3.8633028 24.34485758 5.5625 18.5 C5.79646484 17.67757812 6.03042969 16.85515625 6.27148438 16.0078125 C6.84242072 14.00370942 7.42046705 12.00163409 8 10 C4.7 10 1.4 10 -2 10 C-1.34 6.7 -0.68 3.4 0 0 Z " fill="#1F4855" transform="translate(19,15)"/>
<path d="M0 0 C4.15603459 1.65219408 8.00415516 3.89090768 10 8 C10 10.31 10 12.62 10 15 C2.08 15 -5.84 15 -14 15 C-14 8.33227996 -13.49649009 7.19478528 -10 2 C-6.22786948 -0.51475368 -4.47964158 -0.44796416 0 0 Z " fill="#1D4653" transform="translate(54,49)"/>
<path d="M0 0 C3.625 0.1875 3.625 0.1875 6.625 2.1875 C6.9375 5.6875 6.9375 5.6875 6.625 9.1875 C4.625 11.1875 4.625 11.1875 1.125 11.4375 C-2.375 11.1875 -2.375 11.1875 -4.375 9.1875 C-4.70252234 6.47295044 -4.5058425 3.93519241 -4.375 1.1875 C-3.375 0.1875 -3.375 0.1875 0 0 Z " fill="#93C3D3" transform="translate(7.375,46.8125)"/>
<path d="M0 0 C2.97 0 5.94 0 9 0 C8.75922953 7.10272873 8.75922953 7.10272873 6.66796875 9.57421875 C5.16835562 10.78923377 3.58570785 11.89971292 2 13 C1.34 13.66 0.68 14.32 0 15 C0 10.05 0 5.1 0 0 Z " fill="#FEFEFE" transform="translate(0,0)"/>
<path d="M0 0 C0 6.27 0 12.54 0 19 C-5 14 -5 14 -5.48828125 10.88671875 C-5.43027344 9.83097656 -5.37226562 8.77523437 -5.3125 7.6875 C-5.26738281 6.61886719 -5.22226562 5.55023438 -5.17578125 4.44921875 C-5.11777344 3.64097656 -5.05976562 2.83273438 -5 2 C-1.125 0 -1.125 0 0 0 Z " fill="#F7F9FA" transform="translate(64,38)"/>
<path d="M0 0 C2.64752004 2.57784846 4.94432065 4.91648098 7 8 C4.69 8 2.38 8 0 8 C0 5.36 0 2.72 0 0 Z " fill="#FCFDFD" transform="translate(0,56)"/>
</svg>
